PathFileType	4	(X/Y/Z)	C:/Users/beibeiliu/ov580/test_trc/User2\sequence.7_training_dense_right.trc
DataRate	CameraRate	NumFrames	NumMarkers	Units	OrigDataRate	OrigDataStartFrame	OrigNumFrames
120	120	16	19	mm	120	254	338
Frame#	Time	ThumbCMC			ThumbMCP			ThumbIP			ThumbTip			IndexMCP			IndexPIP			IndexTip			MiddleMCP			MiddlePIP			MiddleTip			RingMCP			RingPIP			RingTip			PinkyMCP			PinkyPIP			PinkyTip			BackHand1			BackHand2			BackHand3	
		X0	Y0	Z0	X1	Y1	Z1	X2	Y2	Z2	X3	Y3	Z3	X4	Y4	Z4	X5	Y5	Z5	X6	Y6	Z6	X7	Y7	Z7	X8	Y8	Z8	X9	Y9	Z9	X10	Y10	Z10	X11	Y11	Z11	X12	Y12	Z12	X13	Y13	Z13	X14	Y14	Z14	X15	Y15	Z15	X16	Y16	Z16	X17	Y17	Z17	X18	Y18	Z18	
253	2.10833	101.726	54.4573	74.4042	78.2071	48.3815	64.8492	45.4357	46.7512	43.5158	25.0706	43.1725	35.2861	81.1957	19.8183	6.15414	73.7269	-6.78218	24.6637	88.4352	10.9725	50.8029	98.2669	4.2345	3.93867	92.671	-19.8756	32.2898	105.178	10.0213	57.0662	116.515	-14.0904	11.9059	108.341	-22.7855	38.8616	121.434	9.80474	53.3928	133.928	-19.2745	20.3846	122.091	-21.1676	50.1306	135.382	8.14641	62.4908	154.588	34.5539	26.4022	168.947	50.1066	57.0381	134.794	60.8857	48.9639	
254	2.11667	107.246	55.8044	72.0982	81.6345	51.3503	56.0617	54.8896	50.1962	35.1703	35.0002	45.4938	20.2739	90.0747	18.1604	-0.920398	81.0153	-4.12924	15.6883	92.1756	16.8283	47.1673	105.628	6.47998	-0.418768	94.5816	-16.9324	26.7215	110.166	11.7883	53.0298	120.659	-12.1787	8.89009	110.004	-21.102	37.1931	125.891	10.6564	50.8018	138.37	-20.9545	18.1009	123.134	-17.1227	49.2925	138.379	7.19852	57.3969	163.764	34.6458	28.3086	171.433	48.9459	56.5305	138.306	62.5316	48.701	
255	2.125	110.482	58.3657	66.5132	86.5464	54.3824	43.6952	60.7242	52.5877	21.1974	42.2691	48.8814	5.20369	102.354	21.433	-7.16052	87.1951	-4.69525	9.2342	98.7781	14.6167	41.0039	116.334	2.49687	-5.71602	102.832	-18.2274	19.9824	114	5.82821	48.0183	131.696	-11.5745	5.78967	117.461	-21.7834	35.4167	130.028	7.1161	48.318	146.456	-22.6206	16.7739	130.572	-21.4824	47.0588	143.229	4.89073	56.2291	169.108	31.7742	26.5449	178.833	47.1826	61.099	143.143	61.0871	43.8614	
256	2.13333	117.564	55.7891	54.132	95.1538	50.0051	34.8819	73.7393	46.0043	8.93416	58.3553	40.2637	-5.52823	114.823	13.1805	-12.7059	97.7962	-9.02024	1.94018	106.744	8.39176	34.3169	132.253	-1.76933	-8.92248	113.711	-22.8907	16.296	120.356	5.54861	45.3398	136.967	-17.1512	4.01063	128.036	-27.0701	31.0587	136.892	4.03804	47.6058	153.084	-26.8257	17.5131	137.009	-21.5665	45.5055	150.222	1.58441	56.4079	176.678	31.4958	26.6105	184.077	46.671	56.9642	155.823	59.1195	40.7705	
257	2.14167	120.273	53.2232	53.296	102.622	41.9458	32.0317	79.767	35.6455	6.72581	66.7826	27.188	-12.6331	120.957	5.24454	-14.5494	111.124	-18.1993	5.74662	115.754	1.7907	32.9331	137.59	-9.40061	-9.888	121.693	-28.9696	15.5429	129.048	-0.791999	45.3984	148.393	-23.3954	5.59802	135.201	-30.9824	33.6478	143.004	0.0833996	48.2561	164.119	-30.348	20.9137	146.878	-28.9793	46.8593	160.33	1.05321	57.2463	184.801	24.5565	25.3975	190.718	43.5609	56.6075	159.704	54.4904	38.5888	
258	2.15	124.652	45.5598	53.1477	101.696	35.2446	29.2724	84.4533	21.8075	5.95211	69.7825	10.0853	-12.1542	131.394	-4.9865	-11.7891	117.354	-28.1522	9.94197	122.621	-7.94025	35.2153	148.211	-20.6841	-3.27359	126.111	-36.4094	24.3048	133.933	-5.93755	49.3758	157.751	-35.5373	14.3497	140.587	-37.0043	41.0044	150.917	-2.65909	53.049	172.337	-33.2108	26.684	154.079	-32.7491	56.4792	163.714	-0.919208	59.4926	189.966	22.1509	28.1164	195.937	38.0274	57.9069	162.191	50.4637	35.1469	
259	2.15833	127.021	42.9302	51.9857	106.781	26.5863	32.9679	87.8032	10.7066	10.9523	72.1109	-2.30029	-2.17214	128.404	-16.4035	-5.15827	115.203	-33.8666	18.1131	120.724	-7.46166	42.8848	146.922	-33.2419	6.83948	125.534	-41.4481	33.2848	134.992	-12.786	58.462	156.648	-38.8528	22.1515	141.855	-42.6228	49.1961	146.978	-7.42719	59.8466	170.815	-44.4782	39.4567	152.08	-31.4725	66.3731	162.869	-3.17114	67.5924	193.78	11.3894	30.7224	198.482	34.2813	62.7421	163.105	45.1572	37.7235	
260	2.16667	128.556	44.2876	53.6849	106.527	29.2792	39.2476	83.9918	9.98574	17.1819	66.9977	-4.33612	5.26651	126.096	-25.3395	6.31351	110.841	-37.4985	29.0532	118.229	-6.1283	49.4287	141.475	-36.087	17.1919	118.482	-44.341	46.1397	127.256	-9.6646	66.334	147.151	-44.9419	37.0739	130.264	-39.2442	63.4601	143.795	-5.09006	69.0943	160.617	-48.9963	54.385	144.912	-31.8955	77.3821	160.035	-3.773	75.285	191.013	2.24267	40.9542	197.711	28.508	63.9736	168.536	34.8777	35.7667	
261	2.175	133.312	46.645	54.5818	105.36	32.584	37.9837	82.1619	12.1566	20.3331	65.4142	-2.23856	11.5956	115.06	-23.3601	14.9396	93.7106	-29.3218	37.867	111.594	-1.44197	55.9706	124.4	-38.5137	27.8249	106.626	-37.4483	59.3865	120.567	0.0505363	72.1154	132.2	-45.9467	50.7729	119.295	-35.3587	75.5524	137.21	0.322329	74.7025	149.201	-46.039	64.2664	133.391	-25.0067	88.1146	153.201	1.46489	76.9584	184.01	-6.85221	44.5354	194.197	22.6778	64.3616	166.968	31.0941	39.4062	
262	2.18333	134.808	50.6091	49.5718	107.175	44.5841	39.5015	79.8479	29.4122	21.0287	60.7618	15.8619	13.1087	101.79	-17.6067	20.3681	86.408	-18.3399	45.3052	107.179	8.83434	59.0969	112.917	-33.8005	37.2991	93.2902	-22.9746	67.0804	115.666	7.55868	74.6949	119.623	-39.0598	56.7391	105.901	-20.5345	80.1987	132.468	5.81717	79.4782	131.667	-40.7438	73.5823	120.75	-15.8005	91.6884	144.113	4.07365	84.667	177.553	-10.8766	52.2927	194.848	15.2818	65.39	166.997	25.8127	37.1673	
263	2.19167	139.437	53.93	45.691	112.68	51.3264	32.005	83.9127	36.7412	13.3055	63.3151	32.6461	4.49948	94.7958	-7.08163	18.5137	75.3389	0.326045	42.9882	99.5673	21.243	55.4084	103.297	-23.6618	36.8644	83.3995	-10.0533	63.3216	110.655	20.8984	69.9121	105.16	-29.6714	57.3362	96.004	-10.5175	82.2484	124.862	11.4074	79.6558	118.694	-34.2354	75.0824	111.693	-5.20171	91.3807	137.282	11.2816	83.0767	168.062	-11.5756	51.2782	190.983	11.4992	65.4438	165.974	27.1873	39.0252	
264	2.2	149.132	61.6314	40.7824	122.877	58.8788	25.5743	92.3599	48.6221	3.03618	72.6101	45.502	-4.27731	91.508	2.37826	16.0266	73.5172	15.4136	35.758	102.449	30.9018	48.8834	94.3497	-13.095	34.8186	78.2219	6.8405	60.3439	113.924	29.7411	64.4032	97.2539	-20.0927	56.8042	88.4089	6.50249	74.5524	124.81	19.3279	73.3131	107.011	-22.3849	71.8379	103.25	7.85891	86.9995	135.147	16.2453	77.2348	161.989	-13.9129	54.2171	184.667	6.8187	64.4432	167.302	24.628	36.2578	
265	2.20833	155.75	54.9967	34.8531	132.14	59.2152	14.0288	103.876	55.1603	-9.27286	83.5011	56.4313	-22.3391	92.3633	10.0786	12.4521	75.1999	27.9427	31.9767	109.035	41.0806	42.1918	87.0459	-2.16521	30.9474	77.0072	21.7989	52.4098	114.597	35.4361	59.9224	89.243	-5.59282	52.9702	87.0773	20.876	72.7554	119.335	28.7507	68.9969	95.6495	-11.4044	73.3204	97.3341	18.5164	82.816	132.162	21.092	79.0831	150.956	-15.4726	52.6714	184.263	3.63296	66.728	168.595	20.081	32.5481	
266	2.21667	163.489	53.549	26.0629	143.132	57.973	7.95336	118.516	55.7375	-15.3963	99.3424	61.8005	-35.8385	96.4535	15.9086	7.28058	81.3656	41.5564	26.0941	113.886	45.532	37.2209	85.9961	6.9946	27.7742	79.1806	36.6584	45.7341	116.945	46.2814	50.5915	86.0339	6.15706	46.7684	85.3048	30.1879	66.2292	123.189	34.5246	63.7136	94.2206	-1.224	66.0386	97.59	30.8267	81.0885	131.734	30.5415	72.455	147.693	-14.6641	53.1394	175.166	-1.48149	66.8179	168.595	15.1306	34.3992	
267	2.225	171.848	48.1923	26.4966	152.798	52.2096	0.0442409	131.302	53.7732	-26.4704	115.034	58.7573	-44.5258	99.7204	23.495	-1.74633	86.1926	45.1506	17.4808	123.465	47.3977	30.1069	88.4412	15.0851	19.5132	84.4056	45.1491	37.8356	122.068	50.212	45.7431	84.9862	15.3345	43.1699	91.2151	44.716	54.0076	128.856	39.5314	55.3932	91.4137	10.3434	62.3326	98.3711	41.1846	73.1703	133.548	33.7588	70.5154	141.021	-14.1182	52.7468	173.274	-4.6465	67.6177	167.313	9.4795	30.0343	
268	2.23333	180.671	44.3427	21.0292	163.35	48.3068	-8.42017	145.163	49.686	-32.163	130.663	52.3506	-56.5353	100.583	21.9308	-4.77205	94.7867	50.9237	7.02183	126.466	50.9265	21.7686	91.7207	16.3983	15.2653	88.6095	48.8132	25.4456	128.899	48.7342	41.3795	87.1323	20.8277	35.1645	95.7074	49.6181	45.2126	130.314	42.3904	49.379	90.249	15.8825	58.0852	104.404	47.934	64.3174	135.943	36.5819	69.1578	140.109	-11.8661	50.8069	171.713	-3.20533	71.7781	174.056	8.35345	31.2284	
